<svg xmlns:xlink="http://www.w3.org/1999/xlink"  viewBox="0 0 36 50" fill="none" xmlns="http://www.w3.org/2000/svg"><path d="M17.79 10.106c-1.582 0-4.656.86-9.137 2.556-2.576.975-4.92 1.97-5.808 2.353l-.471.203.059.51c.223 1.916.75 5.718 1.775 9.644 1.54 5.893 5.07 14.336 13.139 21.087l.442.37.443-.37c8.07-6.751 11.599-15.194 13.139-21.087 1.025-3.927 1.552-7.728 1.774-9.644l.06-.51-.472-.203c-.887-.383-3.23-1.378-5.807-2.353-4.48-1.696-7.554-2.556-9.136-2.556zm0 .69c1.03 0 3.408.436 8.891 2.511a145.65 145.65 0 0 1 5.78 2.341c-.217 1.86-.739 5.648-1.757 9.55-1.524 5.829-5 14.11-12.915 20.732C9.874 39.308 6.4 31.027 4.875 25.198c-1.018-3.902-1.54-7.69-1.757-9.55.957-.412 3.245-1.382 5.78-2.34 5.483-2.076 7.862-2.512 8.892-2.512z" fill="#000"></path><path d="m17.79 15.133 6.142-1.894c-2.607-.905-4.94-1.563-6.141-1.563-1.2 0-3.535.658-6.142 1.563l6.142 1.894zM17.788 20.06l8.702-2.454 4.623 1.303c.171-1.05.3-1.977.393-2.715l-.03-.012-4.986 1.406-8.702-2.454-8.735 2.462 8.735 2.464zM4.078 16.206c.091.729.218 1.642.386 2.674l4.548-1.283-4.934-1.39zM4.83 20.988c.176.921.381 1.89.618 2.88l4.356-1.343 7.983 2.462 7.982-2.462 4.357 1.344c.236-.99.442-1.96.618-2.88l-4.975 1.534-7.982-2.462-7.983 2.462-4.974-1.535z" fill="#000"></path><path d="M5.976 25.879c.256.897.559 1.845.916 2.827l3.68-1.252 7.219 2.457 7.23-2.46 3.671 1.25c.355-.98.656-1.92.911-2.814l-4.582 1.56-7.23-2.462-7.22 2.457-4.595-1.563zM17.791 34.838l5.99-2.463-5.99-2.463-5.99 2.463 5.99 2.463z" fill="#000"></path><path d="m9.002 33.527 2.801-1.152-4.139-1.703a40.64 40.64 0 0 0 1.338 2.855zM27.918 30.672l-4.139 1.702 2.802 1.152c.5-.966.944-1.921 1.337-2.854zM17.79 39.763l4.476-2.463-4.476-2.463-4.476 2.463 4.476 2.463zM25.094 36.161 22.271 37.3l1.575.755c.398-.574.894-1.32 1.248-1.894z" fill="#000"></path><path d="M10.496 36.161 13.32 37.3l-1.574.755a46.837 46.837 0 0 1-1.249-1.894zM17.55 44.558l.24.132.24-.132a37.357 37.357 0 0 0 3.026-3.004l-3.265-1.79-3.267 1.79a37.404 37.404 0 0 0 3.026 3.004zM14.796 7.003l-.498.498a2.243 2.243 0 0 0 1.591.658c.558 0 1.114-.207 1.546-.617v1.303h.705V7.542c.433.41.99.617 1.546.617.577 0 1.153-.219 1.592-.658l-.498-.498a1.55 1.55 0 0 1-2.187 0 1.549 1.549 0 0 1 0-2.187 1.548 1.548 0 0 1 2.187 0l.498-.498a2.252 2.252 0 0 0-3.138-.04V2.975h-.705v1.302a2.252 2.252 0 0 0-3.137.041l.498.498a1.548 1.548 0 0 1 2.187 0 1.548 1.548 0 0 1 0 2.187 1.549 1.549 0 0 1-2.187 0z" fill="#000"></path><path d="M.526 11.116a8.937 8.937 0 0 0-.009.423c0 .06.025 6.146 2.14 14.246 1.678 6.423 5.577 15.574 14.622 22.693.003.001.24.188.51.378.27-.19.508-.377.51-.378 9.047-7.119 12.946-16.27 14.624-22.693 2.115-8.1 2.14-14.185 2.14-14.246 0-.199-.005-.338-.01-.423a144.67 144.67 0 0 0-2.077-1.79C26.012 3.575 18.12.674 18.044.646L17.79.552l-.247.093c-.084.029-7.976 2.931-14.939 8.68-.508.42-1.75 1.504-2.078 1.791zm17.343 38.313h-.158l-.066-.044c-.34-.23-.671-.49-.686-.502C7.801 41.677 3.854 32.416 2.156 25.916.025 17.752 0 11.6 0 11.539c0-.386.017-.564.017-.571l.01-.102.077-.068c.016-.014 1.58-1.383 2.17-1.872C9.34 3.094 17.298.181 17.372.156L17.79 0l.428.16c.065.021 8.022 2.934 15.087 8.766.592.489 2.155 1.858 2.17 1.872l.078.068.01.102c0 .007.017.185.017.571 0 .062-.025 6.213-2.156 14.377-1.698 6.5-5.645 15.761-14.804 22.968-.014.01-.346.272-.685.5l-.066.045z" fill="#000"></path></svg>