<svg xmlns="http://www.w3.org/2000/svg" viewBox="0 0 20 20"><path d="M10 4H7.55a3.29 3.29 0 0 0-3.46 3.54v4.92a3.28 3.28 0 0 0 3.46 3.46h4.9a3.29 3.29 0 0 0 3.46-3.46V7.54a3.28 3.28 0 0 0-3.46-3.46C11.82 4.05 11.62 4 10 4zm0 1h2.44a2.27 2.27 0 0 1 2.48 2.48V12.37a2.28 2.28 0 0 1-2.48 2.49H7.56a2.28 2.28 0 0 1-2.48-2.49V7.48a2.27 2.27 0 0 1 2.48-2.41C8.2 5 8.39 5 10 5zm-3 5a3 3 0 1 1 3 3 3 3 0 0 1-3-3zm3 2a2 2 0 1 1 2-2 2 2 0 0 1-2 2zm2.48-5.22a.74.74 0 0 1 .74-.78.75.75 0 0 1 .75.74.76.76 0 0 1-.75.75.75.75 0 0 1-.74-.72z" fill-rule="evenodd"></path></svg>